<svg width="3300" height="2200" viewBox="0 0 3300 2200" fill="none" xmlns="http://www.w3.org/2000/svg">
<rect width="3300" height="2200" fill="#1E1E1E"/>
<g id="moments.symbol" clip-path="url(#clip0_1617_7191)">
<g id="Notes">
<path id="artboard" d="M3300 0H0V2200H3300V0Z" fill="white"/>
<path id="Vector" d="M263 292H3036" stroke="black" stroke-width="0.5"/>
<text id="Weight/Scale Variations" fill="black" xml:space="preserve" style="white-space: pre" font-family="Inter" font-size="13" font-weight="bold" letter-spacing="0em"><tspan x="263" y="321.727">Weight/Scale Variations</tspan></text>
<text id="Ultralight" fill="black" xml:space="preserve" style="white-space: pre" font-family="Inter" font-size="13" letter-spacing="0em"><tspan x="531.211" y="321.727">Ultralight</tspan></text>
<text id="Thin" fill="black" xml:space="preserve" style="white-space: pre" font-family="Inter" font-size="13" letter-spacing="0em"><tspan x="842.922" y="321.727">Thin</tspan></text>
<text id="Light" fill="black" xml:space="preserve" style="white-space: pre" font-family="Inter" font-size="13" letter-spacing="0em"><tspan x="1137.63" y="321.727">Light</tspan></text>
<text id="Regular" fill="black" xml:space="preserve" style="white-space: pre" font-family="Inter" font-size="13" letter-spacing="0em"><tspan x="1426.34" y="321.727">Regular</tspan></text>
<text id="Medium" fill="black" xml:space="preserve" style="white-space: pre" font-family="Inter" font-size="13" letter-spacing="0em"><tspan x="1721.56" y="321.727">Medium</tspan></text>
<text id="Semibold" fill="black" xml:space="preserve" style="white-space: pre" font-family="Inter" font-size="13" letter-spacing="0em"><tspan x="2014.27" y="321.727">Semibold</tspan></text>
<text id="Bold" fill="black" xml:space="preserve" style="white-space: pre" font-family="Inter" font-size="13" letter-spacing="0em"><tspan x="2325.98" y="321.727">Bold</tspan></text>
<text id="Heavy" fill="black" xml:space="preserve" style="white-space: pre" font-family="Inter" font-size="13" letter-spacing="0em"><tspan x="2617.19" y="321.727">Heavy</tspan></text>
<text id="Black" fill="black" xml:space="preserve" style="white-space: pre" font-family="Inter" font-size="13" letter-spacing="0em"><tspan x="2916.4" y="321.727">Black</tspan></text>
<path id="Vector_2" d="M263 1903H3036" stroke="black" stroke-width="0.5"/>
<g id="Group">
<path id="Vector_3" d="M272.248 1933.83C273.329 1933.83 274.344 1933.62 275.295 1933.21C276.245 1932.8 277.084 1932.23 277.81 1931.51C278.535 1930.78 279.105 1929.94 279.519 1928.99C279.932 1928.04 280.139 1927.02 280.139 1925.95C280.139 1924.87 279.932 1923.86 279.519 1922.91C279.105 1921.96 278.534 1921.12 277.805 1920.39C277.075 1919.66 276.236 1919.09 275.285 1918.68C274.335 1918.27 273.319 1918.07 272.238 1918.07C271.164 1918.07 270.152 1918.27 269.201 1918.68C268.251 1919.09 267.414 1919.66 266.691 1920.39C265.969 1921.12 265.401 1921.96 264.987 1922.91C264.574 1923.86 264.367 1924.87 264.367 1925.95C264.367 1927.02 264.574 1928.04 264.987 1928.99C265.401 1929.94 265.97 1930.78 266.696 1931.51C267.422 1932.23 268.26 1932.8 269.211 1933.21C270.161 1933.62 271.174 1933.83 272.248 1933.83ZM272.248 1932.35C271.363 1932.35 270.534 1932.18 269.763 1931.85C268.991 1931.52 268.314 1931.07 267.731 1930.48C267.149 1929.89 266.693 1929.21 266.364 1928.44C266.035 1927.66 265.871 1926.83 265.871 1925.95C265.871 1925.06 266.034 1924.23 266.359 1923.46C266.685 1922.68 267.139 1922 267.722 1921.42C268.304 1920.83 268.981 1920.37 269.753 1920.05C270.524 1919.72 271.353 1919.55 272.238 1919.55C273.13 1919.55 273.962 1919.72 274.733 1920.05C275.505 1920.37 276.184 1920.83 276.769 1921.42C277.355 1922 277.814 1922.68 278.146 1923.46C278.478 1924.23 278.644 1925.06 278.644 1925.95C278.644 1926.83 278.48 1927.66 278.151 1928.44C277.823 1929.21 277.367 1929.89 276.784 1930.48C276.202 1931.07 275.523 1931.52 274.748 1931.85C273.973 1932.18 273.14 1932.35 272.248 1932.35ZM268.654 1925.95C268.654 1926.16 268.723 1926.34 268.859 1926.47C268.996 1926.61 269.178 1926.67 269.406 1926.67H271.516V1928.79C271.516 1929.01 271.581 1929.18 271.711 1929.32C271.841 1929.46 272.017 1929.53 272.238 1929.53C272.453 1929.53 272.631 1929.46 272.771 1929.32C272.91 1929.18 272.98 1929.01 272.98 1928.79V1926.67H275.09C275.311 1926.67 275.49 1926.61 275.627 1926.47C275.764 1926.34 275.832 1926.16 275.832 1925.95C275.832 1925.73 275.764 1925.55 275.627 1925.41C275.49 1925.28 275.311 1925.21 275.09 1925.21H272.98V1923.1C272.98 1922.88 272.91 1922.7 272.771 1922.56C272.631 1922.42 272.453 1922.35 272.238 1922.35C272.017 1922.35 271.841 1922.42 271.711 1922.56C271.581 1922.7 271.516 1922.88 271.516 1923.1V1925.21H269.406C269.178 1925.21 268.996 1925.28 268.859 1925.41C268.723 1925.55 268.654 1925.73 268.654 1925.95Z" fill="black"/>
</g>
<g id="Group_2">
<path id="Vector_4" d="M293.576 1935.91C294.937 1935.91 296.218 1935.65 297.419 1935.13C298.62 1934.61 299.68 1933.89 300.598 1932.97C301.516 1932.05 302.235 1930.99 302.756 1929.79C303.277 1928.59 303.537 1927.31 303.537 1925.95C303.537 1924.59 303.277 1923.31 302.756 1922.11C302.235 1920.91 301.516 1919.85 300.598 1918.93C299.68 1918.01 298.618 1917.29 297.414 1916.77C296.21 1916.25 294.927 1915.99 293.566 1915.99C292.206 1915.99 290.925 1916.25 289.724 1916.77C288.522 1917.29 287.465 1918.01 286.55 1918.93C285.635 1919.85 284.917 1920.91 284.396 1922.11C283.876 1923.31 283.615 1924.59 283.615 1925.95C283.615 1927.31 283.876 1928.59 284.396 1929.79C284.917 1930.99 285.637 1932.05 286.555 1932.97C287.473 1933.89 288.532 1934.61 289.733 1935.13C290.935 1935.65 292.215 1935.91 293.576 1935.91ZM293.576 1934.25C292.424 1934.25 291.346 1934.04 290.344 1933.61C289.341 1933.18 288.461 1932.58 287.702 1931.82C286.944 1931.06 286.351 1930.18 285.925 1929.18C285.498 1928.18 285.285 1927.1 285.285 1925.95C285.285 1924.8 285.498 1923.72 285.925 1922.72C286.351 1921.71 286.942 1920.83 287.697 1920.07C288.452 1919.31 289.331 1918.71 290.334 1918.29C291.337 1917.86 292.414 1917.65 293.566 1917.65C294.719 1917.65 295.796 1917.86 296.799 1918.29C297.801 1918.71 298.684 1919.31 299.445 1920.07C300.207 1920.83 300.803 1921.71 301.232 1922.72C301.662 1923.72 301.877 1924.8 301.877 1925.95C301.877 1927.1 301.664 1928.18 301.237 1929.18C300.811 1930.18 300.218 1931.06 299.46 1931.82C298.702 1932.58 297.819 1933.18 296.813 1933.61C295.808 1934.04 294.729 1934.25 293.576 1934.25ZM289.045 1925.95C289.045 1926.18 289.123 1926.38 289.279 1926.53C289.436 1926.68 289.637 1926.75 289.885 1926.75H292.756V1929.63C292.756 1929.88 292.831 1930.08 292.98 1930.23C293.13 1930.38 293.322 1930.46 293.557 1930.46C293.804 1930.46 294.004 1930.38 294.157 1930.23C294.31 1930.08 294.387 1929.88 294.387 1929.63V1926.75H297.268C297.515 1926.75 297.715 1926.68 297.868 1926.53C298.021 1926.38 298.098 1926.18 298.098 1925.95C298.098 1925.7 298.021 1925.5 297.868 1925.35C297.715 1925.2 297.515 1925.12 297.268 1925.12H294.387V1922.25C294.387 1921.99 294.31 1921.79 294.157 1921.64C294.004 1921.48 293.804 1921.41 293.557 1921.41C293.322 1921.41 293.13 1921.49 292.98 1921.64C292.831 1921.8 292.756 1922 292.756 1922.25V1925.12H289.885C289.631 1925.12 289.427 1925.2 289.274 1925.35C289.121 1925.5 289.045 1925.7 289.045 1925.95Z" fill="black"/>
</g>
<g id="Group_3">
<path id="Vector_5" d="M320.617 1938.66C322.01 1938.66 323.34 1938.45 324.606 1938.01C325.872 1937.58 327.036 1936.97 328.097 1936.19C329.158 1935.41 330.081 1934.49 330.866 1933.43C331.65 1932.37 332.259 1931.2 332.692 1929.93C333.125 1928.66 333.341 1927.34 333.341 1925.95C333.341 1924.56 333.125 1923.23 332.692 1921.96C332.259 1920.69 331.65 1919.53 330.866 1918.47C330.081 1917.41 329.158 1916.48 328.097 1915.7C327.036 1914.92 325.871 1914.31 324.601 1913.87C323.332 1913.44 322 1913.22 320.607 1913.22C319.214 1913.22 317.884 1913.44 316.618 1913.87C315.351 1914.31 314.189 1914.92 313.131 1915.7C312.073 1916.48 311.152 1917.41 310.368 1918.47C309.583 1919.53 308.976 1920.69 308.546 1921.96C308.117 1923.23 307.902 1924.56 307.902 1925.95C307.902 1927.34 308.118 1928.66 308.551 1929.93C308.984 1931.2 309.591 1932.37 310.373 1933.43C311.154 1934.49 312.075 1935.41 313.136 1936.19C314.197 1936.97 315.361 1937.58 316.627 1938.01C317.894 1938.45 319.223 1938.66 320.617 1938.66ZM320.617 1936.85C319.412 1936.85 318.265 1936.66 317.174 1936.3C316.084 1935.93 315.086 1935.41 314.181 1934.75C313.276 1934.08 312.49 1933.3 311.823 1932.39C311.155 1931.48 310.639 1930.48 310.275 1929.39C309.91 1928.3 309.728 1927.15 309.728 1925.95C309.728 1924.74 309.91 1923.59 310.275 1922.5C310.639 1921.41 311.154 1920.41 311.818 1919.5C312.482 1918.59 313.266 1917.8 314.171 1917.14C315.076 1916.48 316.074 1915.96 317.165 1915.6C318.255 1915.23 319.402 1915.05 320.607 1915.05C321.818 1915.05 322.969 1915.23 324.059 1915.6C325.15 1915.96 326.149 1916.48 327.057 1917.14C327.965 1917.8 328.751 1918.59 329.415 1919.5C330.08 1920.41 330.596 1921.41 330.963 1922.5C331.331 1923.59 331.515 1924.74 331.515 1925.95C331.522 1927.15 331.343 1928.3 330.978 1929.39C330.613 1930.48 330.098 1931.48 329.43 1932.39C328.763 1933.3 327.975 1934.08 327.067 1934.75C326.159 1935.41 325.159 1935.93 324.069 1936.3C322.978 1936.66 321.828 1936.85 320.617 1936.85ZM314.845 1925.95C314.845 1926.2 314.931 1926.41 315.104 1926.58C315.277 1926.75 315.496 1926.83 315.763 1926.83H319.708V1930.78C319.708 1931.05 319.791 1931.27 319.957 1931.44C320.123 1931.61 320.337 1931.7 320.597 1931.7C320.864 1931.7 321.084 1931.62 321.256 1931.45C321.429 1931.28 321.515 1931.06 321.515 1930.78V1926.83H325.47C325.737 1926.83 325.955 1926.75 326.124 1926.58C326.294 1926.41 326.378 1926.2 326.378 1925.95C326.378 1925.68 326.294 1925.45 326.124 1925.29C325.955 1925.12 325.737 1925.03 325.47 1925.03H321.515V1921.09C321.515 1920.81 321.429 1920.59 321.256 1920.42C321.084 1920.24 320.864 1920.16 320.597 1920.16C320.337 1920.16 320.123 1920.24 319.957 1920.42C319.791 1920.59 319.708 1920.81 319.708 1921.09V1925.03H315.763C315.49 1925.03 315.268 1925.12 315.099 1925.29C314.93 1925.45 314.845 1925.68 314.845 1925.95Z" fill="black"/>
</g>
<text id="Design Variations" fill="black" xml:space="preserve" style="white-space: pre" font-family="Inter" font-size="13" font-weight="bold" letter-spacing="0em"><tspan x="263" y="1952.73">Design Variations</tspan></text>
<text id="Symbols are supported in up to nine weights and three scales." fill="black" xml:space="preserve" style="white-space: pre" font-family="Inter" font-size="13" letter-spacing="0em"><tspan x="263" y="1970.73">Symbols are supported in up to nine weights and three scales.</tspan></text>
<text id="For optimal layout with text and other symbols, vertically align" fill="black" xml:space="preserve" style="white-space: pre" font-family="Inter" font-size="13" letter-spacing="0em"><tspan x="263" y="1988.73">For optimal layout with text and other symbols, vertically align</tspan></text>
<text id="symbols with the adjacent text." fill="black" xml:space="preserve" style="white-space: pre" font-family="Inter" font-size="13" letter-spacing="0em"><tspan x="263" y="2006.73">symbols with the adjacent text.</tspan></text>
<path id="Vector_6" d="M776 1919V1933" stroke="#00AEEF" stroke-width="0.5"/>
<g id="Group_4">
<path id="Vector_7" d="M779.311 1933.16C779.571 1933.16 779.773 1933.1 779.916 1932.99C780.059 1932.88 780.176 1932.69 780.268 1932.41L781.527 1928.97H787.289L788.549 1932.41C788.64 1932.69 788.757 1932.88 788.9 1932.99C789.044 1933.1 789.242 1933.16 789.496 1933.16C789.757 1933.16 789.963 1933.08 790.116 1932.94C790.269 1932.8 790.346 1932.6 790.346 1932.36C790.346 1932.21 790.31 1932.03 790.238 1931.83L785.658 1919.63C785.541 1919.33 785.382 1919.11 785.18 1918.96C784.978 1918.81 784.721 1918.73 784.408 1918.73C783.803 1918.73 783.393 1919.03 783.178 1919.62L778.598 1931.84C778.526 1932.04 778.49 1932.22 778.49 1932.37C778.49 1932.61 778.563 1932.81 778.71 1932.95C778.856 1933.09 779.057 1933.16 779.311 1933.16ZM782.006 1927.48L784.379 1920.91H784.428L786.801 1927.48H782.006Z" fill="black"/>
</g>
<path id="Vector_8" d="M793.197 1919V1933" stroke="#00AEEF" stroke-width="0.5"/>
<text id="Margins" fill="black" xml:space="preserve" style="white-space: pre" font-family="Inter" font-size="13" font-weight="bold" letter-spacing="0em"><tspan x="776" y="1952.73">Margins</tspan></text>
<text id="Leading and trailing margins on the left and right side of each symbol" fill="black" xml:space="preserve" style="white-space: pre" font-family="Inter" font-size="13" letter-spacing="0em"><tspan x="776" y="1970.73">Leading and trailing margins on the left and right side of each symbol</tspan></text>
<text id="can be adjusted by modifying the x-location of the margin guidelines." fill="black" xml:space="preserve" style="white-space: pre" font-family="Inter" font-size="13" letter-spacing="0em"><tspan x="776" y="1988.73">can be adjusted by modifying the x-location of the margin guidelines.</tspan></text>
<text id="Modifications are automatically applied proportionally to all" fill="black" xml:space="preserve" style="white-space: pre" font-family="Inter" font-size="13" letter-spacing="0em"><tspan x="776" y="2006.73">Modifications are automatically applied proportionally to all</tspan></text>
<text id="scales and weights." fill="black" xml:space="preserve" style="white-space: pre" font-family="Inter" font-size="13" letter-spacing="0em"><tspan x="776" y="2024.73">scales and weights.</tspan></text>
<g id="Group_5">
<path id="Vector_9" d="M1291.84 1934.87L1293.54 1936.57C1293.97 1937.01 1294.43 1937.21 1294.9 1937.18C1295.38 1937.15 1295.85 1936.87 1296.31 1936.36L1307.01 1924.57L1306.04 1923.6L1295.43 1935.28C1295.25 1935.48 1295.07 1935.59 1294.89 1935.62C1294.71 1935.64 1294.51 1935.54 1294.27 1935.3L1293.1 1934.14C1292.87 1933.91 1292.76 1933.7 1292.79 1933.52C1292.82 1933.34 1292.94 1933.16 1293.14 1932.98L1304.62 1922.18L1303.64 1921.21L1292.05 1932.1C1291.55 1932.56 1291.29 1933.02 1291.25 1933.5C1291.22 1933.97 1291.41 1934.43 1291.84 1934.87ZM1298.26 1916.67C1298.05 1916.87 1297.93 1917.1 1297.91 1917.37C1297.88 1917.63 1297.93 1917.85 1298.04 1918.05C1298.16 1918.23 1298.33 1918.37 1298.56 1918.46C1298.78 1918.55 1299.06 1918.56 1299.38 1918.48C1300.11 1918.31 1300.85 1918.24 1301.6 1918.27C1302.35 1918.3 1303.08 1918.55 1303.8 1919.02L1303.21 1920.47C1303.04 1920.89 1302.99 1921.25 1303.07 1921.56C1303.14 1921.87 1303.31 1922.16 1303.58 1922.43L1305.88 1924.75C1306.12 1925 1306.35 1925.14 1306.58 1925.18C1306.81 1925.22 1307.06 1925.21 1307.34 1925.16L1308.4 1924.96L1309.07 1925.64L1309.03 1926.19C1309.01 1926.44 1309.04 1926.67 1309.12 1926.88C1309.2 1927.09 1309.36 1927.31 1309.61 1927.55L1310.37 1928.29C1310.61 1928.53 1310.87 1928.66 1311.15 1928.67C1311.44 1928.68 1311.7 1928.57 1311.93 1928.33L1314.84 1925.41C1315.07 1925.18 1315.19 1924.92 1315.18 1924.65C1315.18 1924.37 1315.05 1924.11 1314.81 1923.87L1314.04 1923.11C1313.8 1922.87 1313.59 1922.7 1313.38 1922.61C1313.18 1922.53 1312.95 1922.49 1312.71 1922.51L1312.14 1922.56L1311.49 1921.93L1311.73 1920.8C1311.8 1920.52 1311.79 1920.26 1311.7 1920.02C1311.6 1919.77 1311.41 1919.5 1311.12 1919.21L1308.92 1917.02C1308.09 1916.2 1307.2 1915.58 1306.26 1915.16C1305.32 1914.75 1304.37 1914.53 1303.42 1914.52C1302.47 1914.5 1301.55 1914.68 1300.67 1915.04C1299.78 1915.41 1298.98 1915.95 1298.26 1916.67ZM1299.75 1917.04C1300.36 1916.6 1301.01 1916.28 1301.7 1916.1C1302.39 1915.91 1303.1 1915.85 1303.8 1915.92C1304.51 1915.98 1305.2 1916.17 1305.87 1916.49C1306.54 1916.8 1307.15 1917.24 1307.7 1917.79L1310.13 1920.21C1310.25 1920.32 1310.32 1920.44 1310.35 1920.55C1310.38 1920.66 1310.38 1920.8 1310.34 1920.97L1310.02 1922.45L1311.52 1923.94L1312.51 1923.88C1312.63 1923.87 1312.72 1923.88 1312.79 1923.9C1312.85 1923.93 1312.94 1923.99 1313.03 1924.08L1313.61 1924.66L1311.17 1927.1L1310.59 1926.53C1310.49 1926.43 1310.43 1926.35 1310.41 1926.28C1310.38 1926.22 1310.37 1926.12 1310.38 1925.99L1310.45 1925.01L1308.95 1923.53L1307.43 1923.78C1307.27 1923.81 1307.14 1923.82 1307.04 1923.8C1306.95 1923.77 1306.84 1923.7 1306.72 1923.59L1304.71 1921.58C1304.58 1921.47 1304.51 1921.35 1304.49 1921.25C1304.48 1921.14 1304.51 1920.99 1304.59 1920.81L1305.47 1918.72C1304.68 1917.99 1303.8 1917.49 1302.83 1917.21C1301.85 1916.93 1300.86 1916.94 1299.84 1917.24C1299.76 1917.26 1299.71 1917.24 1299.69 1917.19C1299.67 1917.15 1299.69 1917.1 1299.75 1917.04Z" fill="black"/>
</g>
<text id="Exporting" fill="black" xml:space="preserve" style="white-space: pre" font-family="Inter" font-size="13" font-weight="bold" letter-spacing="0em"><tspan x="1289" y="1952.73">Exporting</tspan></text>
<text id="Symbols should be outlined when exporting to ensure the" fill="black" xml:space="preserve" style="white-space: pre" font-family="Inter" font-size="13" letter-spacing="0em"><tspan x="1289" y="1970.73">Symbols should be outlined when exporting to ensure the</tspan></text>
<text id="design is preserved when submitting to Xcode." fill="black" xml:space="preserve" style="white-space: pre" font-family="Inter" font-size="13" letter-spacing="0em"><tspan x="1289" y="1988.73">design is preserved when submitting to Xcode.</tspan></text>
<text id="template-version" fill="black" xml:space="preserve" style="white-space: pre" font-family="Inter" font-size="13" letter-spacing="0em"><tspan x="2946" y="1932.73">Template v.3.0</tspan></text>
<text id="Requires Xcode 13 or greater" fill="black" xml:space="preserve" style="white-space: pre" font-family="Inter" font-size="13" letter-spacing="0em"><tspan x="2857" y="1950.73">Requires Xcode 13 or greater</tspan></text>
<text id="descriptive-name" fill="black" xml:space="preserve" style="white-space: pre" font-family="Inter" font-size="13" letter-spacing="0em"><tspan x="2865" y="1968.73">Generated from logo.twitter</tspan></text>
<text id="Typeset at 100 points" fill="black" xml:space="preserve" style="white-space: pre" font-family="Inter" font-size="13" letter-spacing="0em"><tspan x="2903" y="1986.73">Typeset at 100 points</tspan></text>
<text id="Small" fill="black" xml:space="preserve" style="white-space: pre" font-family="Inter" font-size="13" letter-spacing="0em"><tspan x="263" y="725.727">Small</tspan></text>
<text id="Medium_2" fill="black" xml:space="preserve" style="white-space: pre" font-family="Inter" font-size="13" letter-spacing="0em"><tspan x="263" y="1155.73">Medium</tspan></text>
<text id="Large" fill="black" xml:space="preserve" style="white-space: pre" font-family="Inter" font-size="13" letter-spacing="0em"><tspan x="263" y="1585.73">Large</tspan></text>
</g>
<g id="Guides">
<g id="H-reference">
<path id="Vector_10" d="M337.215 699.448H340.118L368.323 625.745H369.093V622.093H366.999L337.215 699.448ZM348.956 672.572H387.704L386.88 670.103H349.78L348.956 672.572ZM396.638 699.448H399.541L369.761 622.093H368.438V625.745L396.638 699.448Z" fill="#27AAE1"/>
</g>
<path id="Baseline-S" d="M263 699.448H3036" stroke="#27AAE1" stroke-width="0.5"/>
<path id="Capline-S" d="M263 622.052H3036" stroke="#27AAE1" stroke-width="0.5"/>
<g id="H-reference_2">
<path id="Vector_11" d="M337.215 1126H340.118L368.323 1052.3H369.093V1048.65H366.999L337.215 1126ZM348.956 1099.12H387.704L386.88 1096.66H349.78L348.956 1099.12ZM396.638 1126H399.541L369.761 1048.65H368.438V1052.3L396.638 1126Z" fill="#27AAE1"/>
</g>
<path id="Baseline-M" d="M263 1126H3036" stroke="#27AAE1" stroke-width="0.5"/>
<path id="Capline-M" d="M263 1048.6H3036" stroke="#27AAE1" stroke-width="0.5"/>
<g id="H-reference_3">
<path id="Vector_12" d="M337.215 1556H340.118L368.323 1482.3H369.093V1478.65H366.999L337.215 1556ZM348.956 1529.12H387.704L386.88 1526.66H349.78L348.956 1529.12ZM396.638 1556H399.541L369.761 1478.65H368.438V1482.3L396.638 1556Z" fill="#27AAE1"/>
</g>
<path id="Baseline-L" d="M263 1556H3036" stroke="#27AAE1" stroke-width="0.5"/>
<path id="Capline-L" d="M263 1478.6H3036" stroke="#27AAE1" stroke-width="0.5"/>
<path id="left-margin-Ultralight-S" d="M512.311 600.73V720.135" stroke="#00AEEF" stroke-width="0.5"/>
<path id="right-margin-Ultralight-S" d="M607.111 600.73V720.135" stroke="#00AEEF" stroke-width="0.5"/>
<path id="left-margin-Regular-S" d="M1400.49 600.73V720.135" stroke="#00AEEF" stroke-width="0.5"/>
<path id="right-margin-Regular-S" d="M1499.19 600.73V720.135" stroke="#00AEEF" stroke-width="0.5"/>
<path id="left-margin-Black-S" d="M2881.5 600.73V720.135" stroke="#00AEEF" stroke-width="0.5"/>
<path id="right-margin-Black-S" d="M2985.3 600.73V720.135" stroke="#00AEEF" stroke-width="0.5"/>
</g>
<g id="Symbols">
<g id="Black-S">
<path id="Vector_13" d="M2927.09 698.667C2926.26 699.506 2925.33 700.237 2924.29 700.859C2922.22 702.093 2919.95 702.715 2917.46 702.715C2914.98 702.715 2912.7 702.093 2910.64 700.859C2908.61 699.624 2906.97 697.975 2905.72 695.922C2904.51 693.868 2903.9 691.616 2903.9 689.168C2903.9 687.914 2904.05 686.719 2904.36 685.573L2927.07 698.667H2927.09ZM2962.39 685.366C2962.75 686.571 2962.93 687.835 2962.93 689.158C2962.93 691.607 2962.31 693.858 2961.07 695.912C2959.82 697.966 2958.17 699.614 2956.11 700.849C2954.05 702.083 2951.79 702.705 2949.33 702.705C2946.84 702.705 2944.57 702.083 2942.5 700.849C2941.42 700.187 2940.44 699.407 2939.58 698.509L2962.39 685.356V685.366ZM2931.05 636.084C2932.23 635.393 2933.59 635.393 2934.76 636.084L2952.26 646.502C2953.44 647.213 2954.13 648.437 2954.13 649.8V670.644C2954.13 672.016 2953.44 673.231 2952.26 673.952L2934.76 684.428C2933.59 685.119 2932.23 685.119 2931.05 684.428L2913.52 673.952C2912.38 673.241 2911.68 672.016 2911.68 670.644V649.8C2911.68 648.427 2912.37 647.213 2913.52 646.502L2931.05 636.084ZM2968.62 647.617C2969.82 647.923 2970.96 648.407 2972.04 649.049C2974.1 650.264 2975.74 651.893 2976.96 653.947C2978.2 656 2978.82 658.262 2978.82 660.74C2978.82 663.189 2978.2 665.44 2976.96 667.494C2975.74 669.548 2974.1 671.197 2972.04 672.431C2970.96 673.083 2969.82 673.557 2968.62 673.863V647.607V647.617ZM2897.76 673.764C2896.72 673.458 2895.71 673.014 2894.75 672.441C2892.69 671.207 2891.04 669.558 2889.8 667.504C2888.58 665.45 2887.98 663.199 2887.98 660.75C2887.98 658.272 2888.58 656.01 2889.8 653.957C2891.04 651.903 2892.69 650.273 2894.75 649.059C2895.71 648.486 2896.71 648.042 2897.76 647.736V673.774V673.764ZM2949.33 618.785C2951.79 618.785 2954.05 619.407 2956.11 620.641C2958.17 621.876 2959.82 623.524 2961.07 625.578C2962.31 627.603 2962.93 629.854 2962.93 632.332C2962.93 634.06 2962.63 635.68 2962.03 637.2L2938.83 623.831C2939.87 622.567 2941.09 621.51 2942.51 620.641C2944.57 619.407 2946.85 618.785 2949.33 618.785ZM2917.47 618.785C2919.96 618.785 2922.23 619.407 2924.3 620.641C2925.68 621.471 2926.86 622.478 2927.86 623.673L2904.74 637.003C2904.18 635.531 2903.92 633.981 2903.92 632.332C2903.92 629.854 2904.53 627.603 2905.74 625.578C2906.99 623.524 2908.64 621.876 2910.7 620.641C2912.76 619.407 2915.02 618.785 2917.48 618.785H2917.47Z" fill="black"/>
</g>
<g id="Regular-S">
<path id="Vector_14" d="M1444.02 695.715C1443.26 696.489 1442.4 697.163 1441.44 697.736C1439.53 698.874 1437.44 699.448 1435.14 699.448C1432.85 699.448 1430.75 698.874 1428.85 697.736C1426.98 696.598 1425.46 695.077 1424.32 693.183C1423.2 691.29 1422.63 689.214 1422.63 686.955C1422.63 685.799 1422.78 684.697 1423.06 683.641L1444 695.715H1444.02ZM1476.57 683.45C1476.9 684.561 1477.07 685.726 1477.07 686.946C1477.07 689.204 1476.5 691.28 1475.35 693.174C1474.21 695.068 1472.69 696.589 1470.78 697.727C1468.88 698.865 1466.79 699.439 1464.53 699.439C1462.23 699.439 1460.14 698.865 1458.24 697.727C1457.23 697.117 1456.33 696.398 1455.54 695.569L1476.57 683.441V683.45ZM1447.67 638.005C1448.76 637.367 1450.01 637.367 1451.1 638.005L1467.23 647.611C1468.31 648.267 1468.95 649.396 1468.95 650.652V669.874C1468.95 671.139 1468.31 672.259 1467.23 672.924L1451.1 682.585C1450.01 683.222 1448.76 683.222 1447.67 682.585L1431.51 672.924C1430.45 672.268 1429.81 671.139 1429.81 669.874V650.652C1429.81 649.387 1430.45 648.267 1431.51 647.611L1447.67 638.005ZM1482.32 648.64C1483.42 648.922 1484.48 649.368 1485.47 649.96C1487.37 651.08 1488.88 652.583 1490 654.476C1491.15 656.37 1491.72 658.455 1491.72 660.741C1491.72 662.999 1491.15 665.075 1490 666.969C1488.88 668.863 1487.37 670.384 1485.47 671.522C1484.48 672.123 1483.42 672.56 1482.32 672.842V648.631V648.64ZM1416.98 672.751C1416.01 672.469 1415.08 672.059 1414.2 671.531C1412.3 670.393 1410.78 668.872 1409.63 666.978C1408.51 665.084 1407.96 663.008 1407.96 660.75C1407.96 658.465 1408.51 656.379 1409.63 654.486C1410.78 652.592 1412.3 651.089 1414.2 649.969C1415.08 649.441 1416 649.031 1416.98 648.749V672.76V672.751ZM1464.53 622.052C1466.79 622.052 1468.88 622.626 1470.78 623.764C1472.69 624.902 1474.21 626.423 1475.35 628.317C1476.5 630.183 1477.07 632.259 1477.07 634.545C1477.07 636.138 1476.79 637.631 1476.24 639.034L1454.85 626.705C1455.8 625.539 1456.93 624.565 1458.24 623.764C1460.14 622.626 1462.24 622.052 1464.53 622.052ZM1435.15 622.052C1437.45 622.052 1439.54 622.626 1441.44 623.764C1442.72 624.529 1443.81 625.458 1444.73 626.559L1423.41 638.852C1422.9 637.495 1422.65 636.065 1422.65 634.545C1422.65 632.259 1423.22 630.183 1424.34 628.317C1425.48 626.423 1427 624.902 1428.91 623.764C1430.81 622.626 1432.89 622.052 1435.16 622.052H1435.15Z" fill="black"/>
</g>
<g id="Ultralight-S">
<path id="Vector_15" d="M554.196 694.194C553.464 694.934 552.645 695.579 551.722 696.128C549.902 697.216 547.899 697.765 545.704 697.765C543.509 697.765 541.506 697.216 539.686 696.128C537.892 695.039 536.446 693.585 535.349 691.773C534.277 689.961 533.737 687.976 533.737 685.816C533.737 684.71 533.877 683.656 534.147 682.645L554.178 694.194H554.196ZM585.332 682.463C585.645 683.525 585.811 684.64 585.811 685.807C585.811 687.967 585.262 689.953 584.165 691.764C583.067 693.576 581.613 695.03 579.793 696.119C577.972 697.208 575.978 697.756 573.809 697.756C571.615 697.756 569.611 697.208 567.791 696.119C566.833 695.535 565.971 694.847 565.213 694.055L585.332 682.454V682.463ZM557.688 638.994C558.725 638.384 559.927 638.384 560.963 638.994L576.396 648.182C577.432 648.809 578.042 649.889 578.042 651.091V669.477C578.042 670.687 577.432 671.759 576.396 672.395L560.963 681.635C559.927 682.245 558.725 682.245 557.688 681.635L542.229 672.395C541.219 671.767 540.6 670.687 540.6 669.477V651.091C540.6 649.881 541.21 648.809 542.229 648.182L557.688 638.994ZM590.828 649.166C591.881 649.436 592.892 649.863 593.841 650.429C595.661 651.501 597.107 652.938 598.178 654.749C599.276 656.561 599.824 658.555 599.824 660.741C599.824 662.901 599.276 664.887 598.178 666.699C597.107 668.51 595.661 669.965 593.841 671.053C592.892 671.628 591.881 672.046 590.828 672.316V649.158V649.166ZM528.329 672.229C527.406 671.959 526.517 671.567 525.672 671.062C523.852 669.973 522.398 668.519 521.3 666.707C520.229 664.896 519.698 662.91 519.698 660.75C519.698 658.564 520.229 656.569 521.3 654.758C522.398 652.946 523.852 651.509 525.672 650.438C526.517 649.933 527.397 649.541 528.329 649.271V672.238V672.229ZM573.809 623.735C575.978 623.735 577.972 624.284 579.793 625.372C581.613 626.461 583.067 627.916 584.165 629.727C585.262 631.512 585.811 633.498 585.811 635.684C585.811 637.208 585.541 638.637 585.01 639.978L564.551 628.185C565.466 627.071 566.546 626.139 567.8 625.372C569.611 624.284 571.623 623.735 573.809 623.735ZM545.713 623.735C547.908 623.735 549.911 624.284 551.731 625.372C552.95 626.104 553.995 626.992 554.875 628.046L534.478 639.804C533.99 638.506 533.755 637.139 533.755 635.684C533.755 633.498 534.295 631.512 535.366 629.727C536.463 627.916 537.918 626.461 539.738 625.372C541.558 624.284 543.553 623.735 545.721 623.735H545.713Z" fill="black"/>
</g>
</g>
</g>
<defs>
<clipPath id="clip0_1617_7191">
<rect width="3300" height="2200" fill="white"/>
</clipPath>
</defs>
</svg>
